<?xml version="1.0" encoding="UTF-8" standalone="no"?>
<!DOCTYPE svg PUBLIC "-//W3C//DTD SVG 1.1//EN" "http://www.w3.org/Graphics/SVG/1.1/DTD/svg11.dtd">
<svg xmlns="http://www.w3.org/2000/svg" version="1.1" viewBox="0 0 21 20">
<path fill="#fe5352" fill-opacity="0.996" d="
  M 9.06 0.00
  L 12.06 0.00
  L 15.65 1.36
  A 0.49 0.49 0.0 0 1 15.89 2.08
  Q 15.51 2.69 14.80 2.42
  C 1.16 -2.88 -3.38 16.45 8.51 18.44
  C 15.60 19.62 23.26 12.20 18.02 5.56
  A 0.41 0.40 41.9 0 0 17.36 5.59
  L 10.82 15.88
  A 0.48 0.48 0.0 0 1 10.03 15.90
  L 5.65 9.69
  A 0.49 0.48 -31.7 0 1 5.82 8.98
  C 7.20 8.25 9.43 11.97 10.04 12.94
  A 0.42 0.41 -44.8 0 0 10.75 12.94
  L 16.77 3.27
  A 0.92 0.91 -49.8 0 1 18.22 3.14
  Q 20.26 5.43 21.00 8.31
  L 21.00 11.81
  Q 19.18 18.48 12.44 20.00
  L 8.69 20.00
  Q 1.59 18.32 0.00 11.19
  L 0.00 8.94
  Q 1.62 1.54 9.06 0.00
  Z"
/>
</svg>
