<?xml version="1.0" encoding="UTF-8" standalone="no"?>
<!DOCTYPE svg PUBLIC "-//W3C//DTD SVG 1.1//EN" "http://www.w3.org/Graphics/SVG/1.1/DTD/svg11.dtd">
<svg xmlns="http://www.w3.org/2000/svg" version="1.1" viewBox="0 0 21 20">
<path fill="#1ca8c2" fill-opacity="0.996" d="
  M 8.81 0.00
  L 12.06 0.00
  L 15.52 1.30
  A 0.54 0.54 0.0 0 1 15.82 2.05
  C 15.55 2.58 15.10 2.56 14.57 2.34
  C 5.58 -1.40 -3.17 8.84 4.25 16.18
  C 11.45 23.29 24.21 13.80 18.03 5.55
  A 0.43 0.43 0.0 0 0 17.33 5.58
  L 11.09 15.53
  A 0.80 0.80 0.0 0 1 9.75 15.56
  L 5.70 9.71
  A 0.61 0.60 55.1 0 1 5.84 8.88
  C 6.91 8.10 9.99 12.51 10.23 12.79
  A 0.40 0.40 0.0 0 0 10.87 12.74
  L 16.78 3.29
  A 0.92 0.92 0.0 0 1 18.25 3.16
  Q 20.34 5.50 21.00 8.56
  L 21.00 11.81
  Q 19.18 18.47 12.44 20.00
  L 8.69 20.00
  Q 1.56 18.35 0.00 11.19
  L 0.00 8.69
  Q 1.74 1.65 8.81 0.00
  Z"
/>
</svg>
